<svg xmlns="http://www.w3.org/2000/svg" viewBox="0 0 1200 630" font-family="'JetBrains Mono', ui-monospace, monospace">
  <defs>
    <pattern id="grid" width="32" height="32" patternUnits="userSpaceOnUse">
      <path d="M32 0 H0 V32" fill="none" stroke="#ffffff" stroke-opacity="0.03" stroke-width="1" />
    </pattern>
  </defs>

  <rect width="1200" height="630" fill="#0a0a0a" />
  <rect width="1200" height="630" fill="url(#grid)" />

  <!-- signal wave (white) + noise floor (grey) -->
  <path d="M0,470 C120,380 220,380 320,470 C420,560 520,560 620,470 C720,380 820,380 920,470 C1000,410 1120,440 1200,455"
    fill="none" stroke="#ededed" stroke-opacity="0.5" stroke-width="2.5" />
  <path d="M0,556 L70,552 L120,560 L180,550 L240,560 L320,554 L420,558 L560,555 L760,556 L1000,555 L1200,556"
    fill="none" stroke="#5f5f5f" stroke-opacity="0.7" stroke-width="1.5" />

  <!-- brand -->
  <text x="84" y="170" font-size="38" font-weight="700" fill="#ededed" letter-spacing="2">
    S<tspan fill="#a6d24b">+</tspan>
  </text>
  <text x="150" y="170" font-size="17" fill="#6f6f6f" letter-spacing="0.5">a kiwi init project</text>

  <!-- headline -->
  <text x="80" y="300" font-size="74" font-weight="700" fill="#ededed" letter-spacing="-3">Only the comments</text>
  <text x="80" y="384" font-size="74" font-weight="700" fill="#ededed" letter-spacing="-3">worth reading.</text>

  <!-- sub -->
  <text x="84" y="450" font-size="24" fill="#aeaeae">
    Deterministic-first code review · only new lines · blast radius · learns your noise
  </text>

  <!-- footer -->
  <text x="84" y="588" font-size="21" fill="#4c4c4c">splus.sh</text>
  <text x="1116" y="588" font-size="21" fill="#4c4c4c" text-anchor="end">precision-first code review</text>
</svg>
