<svg xmlns="http://www.w3.org/2000/svg" viewBox="0 0 1200 630" font-family="'IBM Plex Mono', monospace">
  <defs>
    <linearGradient id="bg" x1="0" y1="0" x2="1" y2="1">
      <stop offset="0" stop-color="#0a100d" />
      <stop offset="1" stop-color="#070a09" />
    </linearGradient>
    <radialGradient id="glow" cx="18%" cy="12%" r="60%">
      <stop offset="0" stop-color="#31e6a0" stop-opacity="0.22" />
      <stop offset="1" stop-color="#31e6a0" stop-opacity="0" />
    </radialGradient>
    <pattern id="grid" width="34" height="34" patternUnits="userSpaceOnUse">
      <path d="M34 0 H0 V34" fill="none" stroke="#7ca890" stroke-opacity="0.10" stroke-width="1" />
    </pattern>
    <filter id="ph" x="-20%" y="-20%" width="140%" height="140%">
      <feGaussianBlur stdDeviation="3" />
    </filter>
  </defs>

  <rect width="1200" height="630" fill="url(#bg)" />
  <rect width="1200" height="630" fill="url(#grid)" />
  <rect width="1200" height="630" fill="url(#glow)" />

  <!-- signal + noise traces -->
  <path d="M0,470 C120,360 220,360 320,470 C420,580 520,580 620,470 C720,360 820,360 920,470 C1000,400 1120,440 1200,455"
    fill="none" stroke="#31e6a0" stroke-opacity="0.35" stroke-width="3" filter="url(#ph)" />
  <path d="M0,556 L60,548 L110,560 L170,545 L230,560 L300,552 L380,557 L480,554 L600,556 L800,555 L1000,555 L1200,555"
    fill="none" stroke="#ff6a6a" stroke-opacity="0.4" stroke-width="2" />

  <!-- brand -->
  <text x="84" y="170" font-size="40" font-weight="700" fill="#e9f3ef" letter-spacing="2">
    S<tspan fill="#31e6a0">+</tspan>
  </text>

  <!-- headline -->
  <text x="80" y="300" font-size="78" font-weight="600" fill="#e9f3ef" letter-spacing="-2">Only the comments</text>
  <text x="80" y="386" font-size="78" font-weight="600" fill="#31e6a0" letter-spacing="-2">worth reading.</text>

  <!-- sub -->
  <text x="84" y="452" font-size="25" fill="#8ba096" font-family="'IBM Plex Sans', sans-serif">
    Deterministic-first code review · only new lines · blast radius · learns your noise
  </text>

  <!-- footer -->
  <text x="84" y="588" font-size="22" fill="#56655d">splus.sh</text>
  <text x="1116" y="588" font-size="22" fill="#56655d" text-anchor="end">precision-first code review</text>
</svg>
